<?xml version="1.0" encoding="utf-8"?>
<!-- Generator: Adobe Illustrator 18.1.1, SVG Export Plug-In . SVG Version: 6.00 Build 0)  -->
<svg version="1.1" id="Layer_1" xmlns="http://www.w3.org/2000/svg" xmlns:xlink="http://www.w3.org/1999/xlink" x="0px" y="0px"
	 viewBox="0 0 524.5 185.1" enable-background="new 0 0 524.5 185.1" xml:space="preserve">
<path fill="#222423" d="M89.9,82.4H77.7V71.2h12.1V82.4z M89.9,134.2H77.7V88.1h12.1V134.2z"/>
<path fill="#E18926" d="M143.4,119c0,4.6-1.1,8.3-3.3,11.1c-2.2,2.7-5.2,4.1-9.1,4.1h-30.8V125h25.3c4.4,0,6.6-1.6,6.6-4.9
	c0-3.2-2.2-4.7-6.6-4.7h-13c-3.4,0-6.2-0.6-8.3-1.9c-3.2-2-4.7-5.6-4.7-10.9c0-9.7,5.3-14.6,15.9-14.6H141v9.3h-23.2
	c-4.3,0-6.5,1.4-6.5,4.1v0.7c0,2.7,2,4.1,5.9,4.1h11.1c4.6,0,8,0.8,10.4,2.3C141.8,110.6,143.4,114.1,143.4,119"/>
<path fill="#E18926" d="M190,134.2h-17.5c-7.4,0-13.1-2.1-17-6.3c-3.9-4.2-5.9-9.8-5.9-16.9c0-9.1,2.8-15.5,8.4-19.3
	c3.7-2.5,8.5-3.7,14.6-3.7H190v9.3h-15.9c-4.2,0-7.1,0.7-8.8,2c-1.7,1.3-2.5,3.7-2.5,7.2H190v9.5h-27.3c0,3.4,0.7,5.8,2.3,7.1
	c0.8,0.6,1.9,1.1,3.4,1.5c1.5,0.4,3.4,0.5,5.7,0.5H190V134.2"/>
<path fill="#E18926" d="M235.8,134.2h-17.4c-7.5,0-13.1-2.1-17-6.3c-3.9-4.2-5.9-9.8-5.9-16.9c0-9.1,2.8-15.5,8.3-19.3
	c3.7-2.5,8.5-3.7,14.6-3.7h17.4v9.3h-15.9c-4.2,0-7.1,0.7-8.8,2c-1.7,1.3-2.5,3.7-2.5,7.2h27.3v9.5h-27.3c0,3.4,0.8,5.8,2.3,7.1
	c0.8,0.6,1.9,1.1,3.4,1.5c1.5,0.4,3.4,0.5,5.7,0.5h15.9V134.2"/>
<polyline fill="#E18926" points="290.5,134.2 274.6,134.2 256,111.7 256,134.2 244.2,134.2 244.2,71.2 256,71.2 256,110.2 
	275.6,88.1 290.5,88.1 269.6,110.5 290.5,134.2 "/>
<path fill="#222423" d="M341.4,111.6c0,7.3-1.9,12.9-5.8,16.8c-3.8,3.9-9.6,5.8-17.2,5.8h-10.7v16.5h-11.6V88h23
	c6.5,0,11.8,1.9,15.8,5.8C339.3,97.9,341.4,103.9,341.4,111.6 M329,110.8c0-4.3-0.7-7.4-2.2-9.3c-2-2.5-5.7-3.8-11.3-3.8h-7.8v27
	h4.6c6.7,0,11.2-1.3,13.6-3.7C328,118.9,329,115.5,329,110.8z"/>
<rect x="349.1" y="71.2" fill="#222423" width="12.1" height="62.9"/>
<path fill="#222423" d="M416,134.2h-32.2c-4.4,0-7.9-1.2-10.3-3.6c-2.5-2.4-3.7-5.7-3.7-10c0-5,1.5-8.6,4.4-10.9
	c2.9-2.3,7.5-3.4,13.7-3.4h16c0-3.5-0.7-5.8-2.2-7.1c-1.5-1.3-4.4-2-8.8-2h-20V88h24.6c4.9,0,8.7,0.7,11.2,2.1
	c4.9,2.7,7.4,7.7,7.4,15.2V134.2 M403.8,125.3v-10.1h-14.2c-0.8,0-1.7,0-2.7,0.1c-0.9,0-1.8,0.2-2.5,0.7c-1.5,0.8-2.2,2.3-2.2,4.4
	c0,1.7,0.6,3,1.7,3.8c1.2,0.8,2.8,1.2,4.8,1.2H403.8z"/>
<path fill="#222423" d="M468.6,134.2h-11.9v-29.2c0-2-0.4-3.5-1.1-4.5c-1.3-1.6-3.6-2.4-7.1-2.4h-9.7v36.1h-11.7V88h22.5
	c6.7,0,11.3,1.1,14,3.1c3.3,2.6,4.9,7.2,4.9,13.7V134.2"/>
<path fill="#222423" d="M507.6,134.2h-10.8c-4.4,0-7.8-1.3-10.2-3.8c-2.4-2.5-3.6-6-3.6-10.5v-23h-8.4V88h8.4V71.2h11.8V88h12.9v8.9
	h-12.9v19c0,2.5,0.4,4.7,1.2,6.4c0.8,1.7,2.1,2.6,4,2.6h7.7V134.2"/>
<path display="none" fill="#222423" d="M515,134.2h-3.6v-3.8h3.6V134.2z M530.6,124l-3.6,0.7c-0.1-0.7-0.4-1.3-0.8-1.7
	c-0.4-0.4-1-0.6-1.7-0.6c-0.9,0-1.6,0.3-2.1,1c-0.5,0.7-0.8,1.8-0.8,3.3c0,1.7,0.3,2.9,0.8,3.7c0.5,0.7,1.3,1.1,2.2,1.1
	c0.7,0,1.3-0.2,1.7-0.6c0.5-0.4,0.7-1.1,0.9-2.1l3.5,0.7c-0.4,1.7-1.1,3-2.1,3.9c-1.1,0.9-2.5,1.3-4.2,1.3c-2,0-3.6-0.7-4.8-2
	c-1.2-1.3-1.8-3.2-1.8-5.6c0-2.4,0.6-4.3,1.8-5.6c1.2-1.3,2.8-2,4.9-2c1.7,0,3,0.4,4,1.1C529.5,121.2,530.2,122.4,530.6,124z
	 M532.5,126.7c0-1.3,0.3-2.5,0.9-3.7c0.6-1.2,1.4-2.1,2.5-2.7c1.1-0.6,2.3-0.9,3.6-0.9c2.1,0,3.8,0.7,5.1,2.1c1.3,1.4,2,3.2,2,5.4
	c0,2.2-0.7,4-2,5.5c-1.3,1.4-3,2.1-5,2.1c-1.3,0-2.5-0.3-3.6-0.9c-1.1-0.6-2-1.5-2.6-2.7C532.8,129.8,532.5,128.4,532.5,126.7z
	 M536.2,126.9c0,1.4,0.3,2.5,1,3.3c0.7,0.7,1.4,1.1,2.4,1.1c0.9,0,1.7-0.4,2.4-1.1c0.6-0.8,0.9-1.9,0.9-3.3c0-1.4-0.3-2.5-0.9-3.3
	c-0.7-0.8-1.4-1.1-2.4-1.1c-1,0-1.7,0.4-2.4,1.1C536.6,124.4,536.2,125.5,536.2,126.9z M549.2,119.7h3.3v2c1.2-1.5,2.6-2.3,4.3-2.3
	c0.9,0,1.6,0.2,2.3,0.6c0.6,0.4,1.2,0.9,1.6,1.7c0.6-0.8,1.3-1.3,1.9-1.7c0.7-0.4,1.5-0.6,2.2-0.6c1,0,1.9,0.2,2.6,0.6
	c0.7,0.4,1.2,1.1,1.5,1.9c0.3,0.6,0.4,1.6,0.4,3v9.3h-3.6v-8.3c0-1.5-0.1-2.4-0.4-2.8c-0.3-0.5-0.8-0.8-1.5-0.8
	c-0.5,0-1,0.2-1.4,0.5c-0.4,0.3-0.8,0.8-0.9,1.4c-0.2,0.6-0.3,1.6-0.3,3v7h-3.6v-7.9c0-1.4-0.1-2.3-0.2-2.7
	c-0.1-0.4-0.3-0.7-0.6-0.9c-0.3-0.2-0.7-0.3-1.1-0.3c-0.5,0-1.1,0.2-1.5,0.5c-0.5,0.3-0.8,0.8-1,1.4c-0.2,0.6-0.3,1.6-0.3,3v7.1
	h-3.6V119.7z M576.5,134.2h-3.6v-3.8h3.6V134.2z M582.9,124.1l-3.3-0.6c0.4-1.4,1-2.4,1.9-3.1c0.9-0.7,2.3-1,4-1
	c1.6,0,2.8,0.2,3.6,0.6c0.8,0.4,1.3,0.9,1.7,1.5c0.3,0.6,0.5,1.8,0.5,3.4l0,4.5c0,1.3,0.1,2.2,0.2,2.8c0.1,0.6,0.3,1.3,0.7,1.9h-3.6
	c-0.1-0.3-0.2-0.6-0.3-1.1c-0.1-0.2-0.1-0.4-0.1-0.5c-0.6,0.7-1.3,1.1-2,1.5c-0.7,0.3-1.5,0.5-2.3,0.5c-1.4,0-2.5-0.4-3.3-1.2
	c-0.8-0.8-1.2-1.8-1.2-3.1c0-0.8,0.2-1.5,0.6-2.2c0.4-0.6,0.9-1.1,1.5-1.5c0.7-0.3,1.6-0.7,2.9-0.9c1.7-0.3,2.9-0.7,3.5-0.9v-0.4
	c0-0.7-0.2-1.3-0.5-1.6c-0.3-0.3-1-0.5-1.9-0.5c-0.7,0-1.1,0.1-1.5,0.4C583.4,123,583.1,123.4,582.9,124.1z M587.8,127.2
	c-0.5,0.2-1.2,0.4-2.2,0.6s-1.7,0.4-2,0.7c-0.5,0.3-0.7,0.8-0.7,1.3s0.2,1,0.6,1.4c0.4,0.4,0.9,0.6,1.4,0.6c0.7,0,1.3-0.2,1.9-0.7
	c0.4-0.3,0.7-0.8,0.9-1.3c0.1-0.3,0.1-0.9,0.1-1.9V127.2z M603.9,134.2V132c-0.5,0.8-1.1,1.4-2,1.8c-0.8,0.4-1.7,0.7-2.6,0.7
	c-0.9,0-1.7-0.2-2.5-0.6c-0.7-0.4-1.3-1-1.6-1.8c-0.3-0.8-0.5-1.9-0.5-3.2v-9.2h3.6v6.7c0,2.1,0.1,3.3,0.2,3.8
	c0.1,0.5,0.4,0.8,0.7,1.1c0.4,0.3,0.8,0.4,1.3,0.4c0.6,0,1.2-0.2,1.7-0.5c0.5-0.4,0.8-0.8,1-1.3c0.2-0.5,0.3-1.8,0.3-3.9v-6.1h3.6
	v14.5H603.9z"/>
<rect x="0" y="0" display="none" fill="none" width="507.6" height="185.1"/>
<g>
	<path fill="#222423" d="M513.7,150.3h-1.9v-1h5v1H515v4.7h-1.2V150.3z"/>
	<path fill="#222423" d="M517.4,149.3h1.8l1.5,4.4l1.5-4.4h1.8v5.7h-1.2l0.1-4.5l-1.5,4.5h-1.3l-1.5-4.5l0.1,4.5h-1.2V149.3z"/>
</g>
<g>
	<path fill="#222423" d="M415.8,151.7h3.1v3.2h-3.1V151.7z"/>
	<path fill="#222423" d="M429,152.1h3.8v2.9h-4.9c-1.2,0-2.3-0.1-3.1-0.4c-0.8-0.3-1.5-0.7-2.1-1.3c-0.6-0.6-1.1-1.4-1.5-2.3
		c-0.4-0.9-0.5-1.9-0.5-2.9c0-1.1,0.2-2,0.5-3c0.4-0.9,0.9-1.7,1.5-2.3c0.6-0.6,1.3-1,2.1-1.2c0.8-0.3,1.8-0.4,3-0.4h4.9v3H429
		c-1.7,0-2.9,0.3-3.5,0.9c-0.6,0.6-1,1.6-1,3.1c0,0.8,0.1,1.5,0.4,2.1s0.7,1,1.2,1.3c0.3,0.2,0.6,0.3,0.9,0.3
		C427.5,152,428.1,152.1,429,152.1z"/>
	<path fill="#222423" d="M448.9,148.1c0,2.1-0.7,3.9-2,5.1c-1.3,1.3-3.1,1.9-5.3,1.9s-4-0.6-5.3-1.9c-1.3-1.3-2-3-2-5.1
		c0-2.1,0.7-3.9,2-5.2c1.3-1.3,3.1-1.9,5.3-1.9c2.2,0,4,0.6,5.3,1.9C448.2,144.3,448.9,146,448.9,148.1z M438.1,148.1
		c0,1.3,0.3,2.3,0.9,3c0.6,0.7,1.5,1.1,2.6,1.1c1.1,0,1.9-0.4,2.6-1.1c0.6-0.7,0.9-1.7,0.9-3s-0.3-2.3-0.9-3
		c-0.6-0.7-1.5-1.1-2.6-1.1c-1.1,0-1.9,0.4-2.5,1.1C438.4,145.8,438.1,146.8,438.1,148.1z"/>
	<path fill="#222423" d="M451.1,141.3H465c2,0,3.5,0.4,4.4,1.2c0.9,0.8,1.3,2.1,1.3,3.8v8.7H467v-8.2c0-1-0.2-1.7-0.5-2
		c-0.3-0.3-0.9-0.5-1.9-0.5h-2V155H459v-10.7h-4.2V155h-3.6V141.3z"/>
	<path fill="#222423" d="M473.3,151.7h3.1v3.2h-3.1V151.7z"/>
	<path fill="#222423" d="M479.3,141.3h7.4c1.9,0,3.3,0.4,4.2,1.3c0.9,0.9,1.4,2.1,1.4,3.8v8.6h-9.7c-1.4,0-2.4-0.3-3.1-1
		c-0.7-0.7-1.1-1.7-1.1-2.9c0-1.6,0.4-2.7,1.3-3.4c0.8-0.7,2.2-1,4.2-1h4.8v-0.3c0-0.8-0.2-1.4-0.7-1.7c-0.5-0.3-1.3-0.5-2.6-0.5h-6
		V141.3z M484.1,152.2h4.5v-2.8h-4.3c-0.8,0-1.4,0.1-1.8,0.3c-0.3,0.2-0.5,0.6-0.5,1.2c0,0.5,0.1,0.8,0.4,1
		C482.8,152.1,483.3,152.2,484.1,152.2z"/>
	<path fill="#222423" d="M507.9,155h-6.8c-2,0-3.5-0.4-4.3-1.2c-0.9-0.8-1.3-2.1-1.3-3.8v-8.7h3.6v8.4c0,0.9,0.2,1.5,0.5,1.8
		c0.3,0.3,0.9,0.5,1.9,0.5h2.9v-10.7h3.6V155z"/>
</g>
<path fill="#E18926" d="M141.2,14.6l-6.9,6.5c-5.4-3.2-11.2-5.9-17.4-7.8l0.7-8.9c0,0-9.2-5.6-23.5-4.1L93,9.5c-0.3,0-0.6,0-0.9,0
	c-6.3,0-12.3,0.7-18.2,2l-2.8-7.7c-17.4,2-22.5,8.7-22.5,8.7l3.1,7.4c-5.2,2.9-10.1,6.4-14.5,10.3l-6-6c-11.2,8.2-16.9,22-16.9,22
	l5.6,5.3c-3.1,5.4-5.5,11.2-7.3,17.3l-8-2.1c0,0-4.6,15.9-4.6,22.5l9.3,1c0,0.7,0,1.4,0,2.1c0,6.2,0.7,12.3,2,18.1l-7.1,2.9
	c0,0,2.6,14.8,5.1,19.9c0,0,5.5-0.5,10.1-1.2c3.1,5.7,6.9,11.1,11.2,15.9l-6.6,7.4c0,0,10.8,13.3,19.4,16.4l7.2-7.5
	c5.4,3.1,11.2,5.7,17.2,7.5l-0.4,9.2c0,0,7.7,4.1,20.5,4.1l2.2-6.5c-37-6.9-65-39.1-65-77.7c0-43.7,35.7-79.1,79.8-79.1
	c20,0,38.3,7.3,52.2,19.3c-1-1.3-2-2.5-3.1-3.7l5.5-7.5C159.6,30,150.4,19.7,141.2,14.6 M174.5,51l-6,2.1c4.9,6.3,8.8,13.4,11.6,21
	l1.6-0.5C181.6,73.5,181.6,59.2,174.5,51z M112.6,183.1c10.3,0,18.2-5.9,21-8.3c-6.9,2.6-14.2,4.3-21.8,4.9L112.6,183.1z"/>
</svg>
